<?xml version="1.0" encoding="UTF-8"?>
<svg class="logo" version="1.1" viewBox="0 0 49 49" xmlns="http://www.w3.org/2000/svg">
<g fill="none" fill-rule="evenodd">
<g transform="translate(-488 -21)" fill="#FFFAD2">
<g transform="translate(488 21)">
<path d="m18.409 7.0936l-14.742 8.2543c-1.049 0.59162-1.7007 1.7071-1.7007 2.911v14.795l-1.0973-0.40874c-0.52278-0.19479-0.86958-0.69394-0.86958-1.2519v-30.023c0-0.95291 0.94912-1.6146 1.843-1.285l16.493 6.0777c0.41167 0.15166 0.45601 0.71585 0.0735 0.93014m19.886 15.59c-0.11732 0.44048-0.47292 0.79608-0.91323 0.9134-1.0135 0.27036-1.9127-0.62924-1.6422-1.6427 0.1175-0.44014 0.47309-0.79573 0.91357-0.91288 1.013-0.26967 1.9117 0.62924 1.6418 1.6422m9.7972 7.5641c-0.52986-0.23965-1.1577-0.067634-1.5433 0.3675l-0.027261 0.030539c-1.2588 1.4334-2.8111 2.5427-4.5251 3.2778-0.0053486 0.002243 0-11.582 0-11.582 0-8.478-6.8843-15.351-15.363-15.351-2.3627 0-4.7735 0.49311-6.8515 1.6422-1.8013 0.99605-12.321 6.8983-15.12 8.4692-0.42409 0.23793-0.6841 0.68496-0.6841 1.1712v29.311c0 1.0093 1.0861 1.6456 1.9667 1.1524l13.072-7.3253c0.41702-0.23379 0.6753-0.67444 0.6753-1.1525v-22.522c0-0.48655 0.32833-0.93721 0.80729-1.0237 0.62924-0.11336 1.1765 0.36698 1.1765 0.97517v4.6091l0.0055211-0.01087c0 0.0036232-3.45e-4 0.0072465-3.45e-4 0.01087 0 8.4539 6.8773 15.331 15.331 15.331 0.77365 0 1.54-0.06194 2.2949-0.17633v10.115c0 0.73931 0.59956 1.339 1.339 1.339 0.73931 0 1.3387-0.59973 1.3387-1.339v-10.772c2.4993-0.85715 4.7635-2.3513 6.5413-4.3755l0.040201-0.045722c0.58645-0.65563 0.4077-1.7295-0.47413-2.128"/>
</g>
</g>
</g>
</svg>
